<?xml version="1.0" encoding="UTF-8" standalone="no"?>
<!-- Created with Inkscape (http://www.inkscape.org/) -->

<svg
   width="629.74878"
   height="469.76892"
   viewBox="0 0 166.62103 124.29303"
   version="1.1"
   id="svg5"
   inkscape:version="1.2.1 (9c6d41e410, 2022-07-14)"
   sodipodi:docname="Javxlogo.svg"
   xmlns:inkscape="http://www.inkscape.org/namespaces/inkscape"
   xmlns:sodipodi="http://sodipodi.sourceforge.net/DTD/sodipodi-0.dtd"
   xmlns:xlink="http://www.w3.org/1999/xlink"
   xmlns="http://www.w3.org/2000/svg"
   xmlns:svg="http://www.w3.org/2000/svg">
  <sodipodi:namedview
     id="namedview7"
     pagecolor="#ffffff"
     bordercolor="#000000"
     borderopacity="0.25"
     inkscape:showpageshadow="2"
     inkscape:pageopacity="0.0"
     inkscape:pagecheckerboard="0"
     inkscape:deskcolor="#d1d1d1"
     inkscape:document-units="px"
     showgrid="false"
     inkscape:zoom="0.18136768"
     inkscape:cx="347.36068"
     inkscape:cy="-350.11751"
     inkscape:window-width="1900"
     inkscape:window-height="986"
     inkscape:window-x="10"
     inkscape:window-y="48"
     inkscape:window-maximized="1"
     inkscape:current-layer="layer1"
     showguides="true">
    <sodipodi:guide
       position="85.364703,166.86739"
       orientation="0,-1"
       id="guide5753"
       inkscape:locked="false" />
    <sodipodi:guide
       position="93.085863,-42.574379"
       orientation="0,-1"
       id="guide5755"
       inkscape:locked="false" />
    <sodipodi:guide
       position="209.19539,90.051786"
       orientation="1,0"
       id="guide5757"
       inkscape:locked="false" />
    <sodipodi:guide
       position="-42.574351,99.145436"
       orientation="1,0"
       id="guide5759"
       inkscape:locked="false" />
  </sodipodi:namedview>
  <defs
     id="defs2">
    <linearGradient
       inkscape:collect="always"
       id="linearGradient1906">
      <stop
         style="stop-color:#668000;stop-opacity:1;"
         offset="0"
         id="stop1902" />
      <stop
         style="stop-color:#445500;stop-opacity:1;"
         offset="1"
         id="stop1904" />
    </linearGradient>
    <linearGradient
       inkscape:collect="always"
       id="linearGradient1386">
      <stop
         style="stop-color:#88aa00;stop-opacity:1;"
         offset="0"
         id="stop1382" />
      <stop
         style="stop-color:#ccd400;stop-opacity:1;"
         offset="1"
         id="stop1384" />
    </linearGradient>
    <inkscape:path-effect
       effect="perspective-envelope"
       up_left_point="-70.13713,9.1134902"
       up_right_point="-22.325369,9.1134902"
       down_left_point="-122.17738,31.544704"
       down_right_point="29.71488,31.544704"
       id="path-effect657"
       is_visible="true"
       lpeversion="1"
       deform_type="perspective"
       horizontal_mirror="false"
       vertical_mirror="true"
       overflow_perspective="true" />
    <inkscape:path-effect
       effect="perspective-envelope"
       up_left_point="-70.137129,9.1134902"
       up_right_point="-22.32537,9.1134902"
       down_left_point="-90.285879,66.303992"
       down_right_point="-2.1766202,66.303992"
       id="path-effect555"
       is_visible="true"
       lpeversion="1"
       deform_type="perspective"
       horizontal_mirror="false"
       vertical_mirror="true"
       overflow_perspective="true" />
    <linearGradient
       inkscape:collect="always"
       xlink:href="#linearGradient1386"
       id="linearGradient1388"
       x1="91.02755"
       y1="88.67421"
       x2="94.497833"
       y2="113.45992"
       gradientUnits="userSpaceOnUse"
       gradientTransform="matrix(1.2248017,0,0,1.2248017,-149.79002,-72.661911)" />
    <linearGradient
       inkscape:collect="always"
       xlink:href="#linearGradient1906"
       id="linearGradient1908"
       x1="80.181725"
       y1="85.080399"
       x2="90.881607"
       y2="67.803482"
       gradientUnits="userSpaceOnUse"
       gradientTransform="matrix(1.2248017,0,0,1.2248017,-149.79002,-72.661911)" />
  </defs>
  <g
     inkscape:label="Capa 1"
     inkscape:groupmode="layer"
     id="layer1"
     transform="translate(-59.564469,-80.728484)">
    <rect
       style="opacity:0;fill:#000000;fill-opacity:1;stroke:none;stroke-width:2.21283;stroke-linecap:round;stroke-linejoin:round;stroke-dasharray:none;stroke-dashoffset:0;stroke-opacity:1;stop-color:#000000"
       id="rect5751"
       width="209.44176"
       height="251.76973"
       x="38.154125"
       y="-268.75986"
       transform="rotate(90)"
       inkscape:export-filename="LogoJavxNewSeguridad.svg"
       inkscape:export-xdpi="96"
       inkscape:export-ydpi="96" />
    <g
       id="g4661"
       transform="matrix(1.2385668,0,0,1.2385668,-158.25752,361.53068)"
       inkscape:export-filename="JavxLogoNew.svg"
       inkscape:export-xdpi="96"
       inkscape:export-ydpi="96">
      <g
         id="g4627"
         transform="matrix(0,-1.3511338,1.3511338,0,163.55262,-246.23522)">
        <path
           id="rect234"
           d="M -52.841896,9.1134902 -17.586258,22.565053 -34.048915,66.303992 -79.99258,37.087344 Z"
           style="fill:url(#linearGradient1388);fill-opacity:1;stroke:none;stroke-width:2.64121;stroke-linecap:round;stroke-linejoin:round;stop-color:#000000"
           inkscape:path-effect="#path-effect555"
           inkscape:original-d="M -65.317931,-46.773215 22.791331,3.1626812 -27.144579,91.271932 -115.25383,41.336042 Z" />
        <path
           id="path653"
           d="m -52.841897,9.1134902 38.394923,3.3958708 -10.78305,19.035343 -63.489618,-14.421485 z"
           style="fill:url(#linearGradient1908);fill-opacity:1;stroke:none;stroke-width:2.64121;stroke-linecap:round;stroke-linejoin:round;stop-color:#000000"
           inkscape:path-effect="#path-effect657"
           inkscape:original-d="M -65.317931,-46.773215 22.791331,3.1626812 -27.144579,91.271932 -115.25383,41.336042 Z" />
      </g>
      <path
         id="path2912"
         style="font-weight:bold;font-size:52.9731px;line-height:1.14;font-family:Oswald;-inkscape-font-specification:'Oswald Bold';text-align:center;text-decoration-color:#000000;text-anchor:middle;opacity:1;fill:#ffffff;stroke:none;stroke-width:8.27706;stroke-linecap:round;stroke-linejoin:round;stop-color:#000000"
         d="m 209.47975,-208.18036 v 30.61828 c 0,3.17839 -0.75934,5.43848 -2.2779,6.78047 -1.51856,1.34198 -3.4783,2.08341 -5.87975,2.22467 v 7.46931 c 3.14307,-0.10595 5.89745,-0.81207 8.26358,-2.11873 2.40145,-1.27136 4.27317,-3.10778 5.61515,-5.50923 1.34199,-2.40144 2.0128,-5.29757 2.0128,-8.68784 v -30.77693 z m 26.06298,14.67352 c -1.94234,0 -3.77877,0.52959 -5.50922,1.58905 -1.73045,1.02415 -3.12581,2.4896 -4.18528,4.39663 -1.05946,1.90703 -1.58905,4.16713 -1.58905,6.78047 0,2.78991 0.5122,5.08583 1.53634,6.88691 1.02415,1.80109 2.4016,3.14271 4.13205,4.0256 1.76577,0.84757 3.72551,1.27124 5.87975,1.27124 1.3773,0 2.5603,-0.21184 3.54913,-0.63562 1.02415,-0.38847 1.87201,-0.84745 2.543,-1.37718 0.70631,-0.56505 1.2359,-1.04193 1.58905,-1.4304 0.022,-0.0264 0.0318,-0.0347 0.0527,-0.0594 v 2.86701 h 7.4166 v -23.14898 h -6.8864 l -0.48059,2.36575 c -0.75999,-0.86876 -1.71109,-1.65786 -2.85719,-2.36575 -1.16541,-0.77693 -2.8954,-1.1653 -5.1909,-1.1653 z m 19.75849,1.1653 13.87925,23.62595 h 0.21188 l 13.13718,-23.62595 h -8.26358 l -4.74493,10.99778 -5.42602,-10.99778 z m 28.28768,0 8.87284,11.50576 -8.60774,11.64322 h 7.36285 l 4.86482,-6.94945 5.35937,6.94945 h 8.95242 l -9.24181,-12.09177 7.97057,-11.05721 h -7.36337 l -3.97289,6.65386 -5.08548,-6.65386 z m -45.92743,4.87361 c 0.95351,0 1.81877,0.15862 2.5957,0.47645 0.77694,0.28253 1.44776,0.70672 2.0128,1.27176 0.56505,0.52973 0.98872,1.18263 1.27124,1.95957 v 5.66839 c -0.38847,0.77694 -0.84745,1.43036 -1.37718,1.96009 -0.52973,0.49441 -1.14784,0.88278 -1.85415,1.1653 -0.7063,0.24721 -1.50043,0.37052 -2.38331,0.37052 -1.09478,0 -2.11917,-0.28245 -3.07268,-0.84749 -0.9182,-0.56505 -1.65963,-1.34178 -2.22467,-2.33061 -0.56505,-0.98883 -0.84801,-2.10123 -0.84801,-3.33726 0,-1.23604 0.26505,-2.33104 0.79478,-3.28456 0.52973,-0.95351 1.23585,-1.69494 2.11873,-2.22467 0.9182,-0.56504 1.90729,-0.84749 2.96675,-0.84749 z m 53.60086,32.03628 v 22.07359 h 4.2416 l -0.0832,-12.55375 14.85698,13.41933 h 0.11575 V -154.595 h -4.21318 l 0.0837,12.79663 -14.82856,-13.63328 z m -12.37857,0.60565 c -1.44275,0 -2.82798,0.23079 -4.15531,0.69247 -1.30808,0.46167 -2.47172,1.17344 -3.49126,2.13527 -1.0003,0.94259 -1.79835,2.13533 -2.39468,3.57807 -0.5771,1.42351 -0.8661,3.10693 -0.8661,5.04982 0,1.48122 0.25989,2.84705 0.77928,4.09743 0.51939,1.25038 1.26945,2.33691 2.25051,3.26026 0.98107,0.90412 2.1641,1.61589 3.54914,2.13527 1.38503,0.50016 2.94336,0.75035 4.67465,0.75035 0.65404,0 1.3464,-0.0771 2.07739,-0.231 0.73099,-0.13465 1.44275,-0.31745 2.13527,-0.54828 0.71175,-0.23084 1.33723,-0.48052 1.87586,-0.74983 0.53862,-0.28855 0.93279,-0.56785 1.18287,-0.83716 v -8.97361 h -7.90598 v 4.03955 h 3.66438 v 2.56831 c -0.34626,0.19237 -0.76954,0.33635 -1.26969,0.43254 -0.50015,0.0769 -1.04853,0.11575 -1.64486,0.11575 -1.03878,0 -1.99051,-0.1445 -2.85616,-0.43305 -0.84641,-0.28855 -1.58728,-0.71183 -2.22209,-1.26969 -0.61557,-0.55786 -1.09654,-1.23081 -1.4428,-2.01951 -0.34626,-0.80794 -0.51935,-1.7122 -0.51935,-2.7125 0,-1.13496 0.15368,-2.12602 0.46147,-2.97243 0.30779,-0.86564 0.76017,-1.58659 1.35651,-2.16369 0.61557,-0.5771 1.36562,-1.01008 2.25051,-1.29863 0.88488,-0.28855 1.90453,-0.43305 3.05872,-0.43305 0.46168,0 0.99065,0.0674 1.58699,0.20206 0.59633,0.11542 1.183,0.26962 1.7601,0.46199 0.57709,0.19236 1.03867,0.38434 1.38492,0.57671 l 1.35651,-3.89537 c -0.7887,-0.44244 -1.75065,-0.80751 -2.88561,-1.09606 -1.13496,-0.30779 -2.3854,-0.46199 -3.75119,-0.46199 z m -30.21108,0.11524 c -1.30809,0.0577 -2.46202,0.3559 -3.46232,0.89452 -1.0003,0.51939 -1.77946,1.23115 -2.33732,2.13527 -0.53863,0.90412 -0.80822,1.97176 -0.80822,3.20291 0,1.01953 0.18279,1.8855 0.54828,2.59725 0.38473,0.69252 0.87541,1.27919 1.47175,1.7601 0.61557,0.46168 1.26963,0.85585 1.96215,1.18288 0.69252,0.32702 1.36599,0.6155 2.02003,0.86558 0.55786,0.2116 1.06743,0.46179 1.52911,0.75034 0.48091,0.28855 0.8562,0.60614 1.12551,0.95239 0.28855,0.34626 0.43253,0.73073 0.43253,1.15394 0,0.61557 -0.17309,1.09655 -0.51934,1.4428 -0.32703,0.34626 -0.75031,0.59645 -1.26969,0.75035 -0.50016,0.13465 -1.00002,0.20205 -1.50017,0.20205 -0.50015,0 -1.04853,-0.0771 -1.64486,-0.23099 -0.59634,-0.1539 -1.19271,-0.36528 -1.78904,-0.63459 -0.5771,-0.28855 -1.11577,-0.61584 -1.61592,-0.98133 l -1.8464,3.26078 c 0.75023,0.51939 1.52887,0.95237 2.33681,1.29863 0.80793,0.32702 1.6259,0.57669 2.45308,0.74982 0.84641,0.15389 1.67356,0.231 2.4815,0.231 1.5774,0 2.90442,-0.27878 3.98167,-0.83665 1.07725,-0.57709 1.8947,-1.32767 2.45256,-2.25102 0.55786,-0.92336 0.83716,-1.9236 0.83716,-3.00085 0,-1.01954 -0.1445,-1.87529 -0.43305,-2.5678 -0.28855,-0.71176 -0.67302,-1.29842 -1.15393,-1.7601 -0.48092,-0.48092 -1.02929,-0.87561 -1.64486,-1.18339 -0.59634,-0.32702 -1.20241,-0.60581 -1.81798,-0.83664 -0.67328,-0.25008 -1.32735,-0.52886 -1.96216,-0.83665 -0.61557,-0.30778 -1.12513,-0.65396 -1.5291,-1.03869 -0.38473,-0.40397 -0.57723,-0.85636 -0.57723,-1.35651 0,-0.73099 0.2599,-1.27936 0.77928,-1.64486 0.51939,-0.36549 1.23115,-0.54777 2.13527,-0.54777 0.73099,0 1.50964,0.14398 2.33681,0.43253 0.84641,0.28855 1.67357,0.65414 2.4815,1.09658 l 1.5875,-3.20291 c -0.8464,-0.55786 -1.80836,-1.03884 -2.88561,-1.4428 -1.05801,-0.40397 -2.44324,-0.60617 -4.1553,-0.60617 z m -47.35058,0.11576 v 21.23694 h 7.38663 c 1.44275,0 2.80858,-0.23078 4.09743,-0.69246 1.28884,-0.48092 2.42388,-1.16357 3.40495,-2.04846 0.98106,-0.90412 1.75052,-1.98146 2.30837,-3.23184 0.5771,-1.26961 0.86558,-2.69314 0.86558,-4.27054 0,-1.32732 -0.21138,-2.64516 -0.63458,-3.95325 -0.42321,-1.30808 -1.09667,-2.49112 -2.02002,-3.54913 -0.90412,-1.05802 -2.10657,-1.90458 -3.60702,-2.53938 -1.50044,-0.63481 -3.31814,-0.95188 -5.4534,-0.95188 z m 22.2472,0 v 21.23694 h 14.88902 v -4.03954 h -10.70529 v -4.58784 h 9.1183 v -4.03954 h -9.1183 v -4.53048 h 10.30118 v -4.03954 z m 36.03966,0 v 21.23694 h 4.18373 V -154.595 Z m -54.10313,4.0106 h 3.40496 c 0.48091,0 1.06758,0.0965 1.7601,0.28887 0.69251,0.17313 1.36598,0.49991 2.02003,0.98082 0.67327,0.48092 1.23083,1.16409 1.67327,2.04897 0.46168,0.86565 0.69247,1.99099 0.69247,3.37603 0,1.05801 -0.17309,2.00056 -0.51935,2.82773 -0.32702,0.80794 -0.808,1.48089 -1.44281,2.01951 -0.61556,0.53863 -1.35591,0.95221 -2.22156,1.24076 -0.86564,0.26931 -1.8276,0.40411 -2.88561,0.40411 h -2.4815 z" />
    </g>
  </g>
</svg>
